<svg width="46" height="45" viewBox="0 0 46 45" fill="none" xmlns="http://www.w3.org/2000/svg">
<rect x="1.33325" y="0.5" width="44" height="44" rx="9.5" fill="#29756F"/>
<path d="M33.4061 17.2396C32.7394 14.9792 30.854 13.0938 28.5936 12.4271C26.8748 11.9271 25.6873 11.9688 24.8644 12.5833C23.8748 13.3229 23.7603 14.6563 23.7603 15.6042V18.1979C23.7603 20.7604 24.9269 22.0625 27.2186 22.0625H30.2082C31.1457 22.0625 32.4894 21.9479 33.229 20.9583C33.8644 20.1458 33.9165 18.9583 33.4061 17.2396Z" fill="white"/>
<path d="M30.5311 23.9167C30.2603 23.6042 29.8645 23.4271 29.4582 23.4271H25.729C23.8957 23.4271 22.4061 21.9375 22.4061 20.1042V16.375C22.4061 15.9688 22.229 15.5729 21.9165 15.3021C21.6145 15.0313 21.1978 14.9063 20.802 14.9583C18.354 15.2708 16.104 16.6146 14.6353 18.6354C13.1561 20.6667 12.6145 23.1458 13.0832 25.625C13.7603 29.2083 16.6249 32.0729 20.2186 32.75C20.7915 32.8646 21.3645 32.9167 21.9374 32.9167C23.8228 32.9167 25.6457 32.3333 27.1978 31.1979C29.2186 29.7292 30.5624 27.4792 30.8749 25.0313C30.927 24.625 30.802 24.2188 30.5311 23.9167Z" fill="white"/>
<rect x="1.33325" y="0.5" width="44" height="44" rx="9.5" stroke="#29756F"/>
</svg>
