<svg width="26" height="25" viewBox="0 0 26 25" fill="none" xmlns="http://www.w3.org/2000/svg">
<path fill-rule="evenodd" clip-rule="evenodd" d="M13.2239 9.35986C11.5344 9.35986 10.1753 9.88056 9.1842 10.9078C6.90163 13.2785 6.91422 16.313 6.91894 18.767L6.92051 19.1068C6.92051 20.3731 7.36255 21.0795 8.4008 21.468C9.41702 21.8487 10.88 21.8786 12.6891 21.8786H13.2255H13.7619C17.7733 21.8786 19.5289 21.6175 19.5289 19.1068L19.5305 18.767C19.5368 16.3114 19.5462 13.2785 17.2652 10.9078C16.2726 9.88056 14.9119 9.35986 13.2239 9.35986Z" fill="black"/>
<path fill-rule="evenodd" clip-rule="evenodd" d="M22.5239 15.8207C22.3745 13.1826 21.9403 10.1937 20.7322 7.7727C20.8344 7.78685 20.9304 7.81202 21.0389 7.81202C21.8947 7.81202 22.5805 7.37785 22.5805 6.84142V5.65058C22.5805 5.11258 21.8931 4.6784 21.0389 4.6784C20.1879 4.6784 19.4957 5.11258 19.4957 5.65058V5.86138C18.6635 4.8719 17.6001 4.09478 16.2598 3.62443V1.54793C16.2598 0.693738 15.4591 0 14.4759 0H11.8866C10.9034 0 10.1011 0.693738 10.1011 1.54793V3.62915C8.69949 4.12625 7.60619 4.96156 6.75671 6.02183V5.65058C6.75671 5.11258 6.08657 4.6784 5.25597 4.6784C4.43167 4.6784 3.75838 5.11258 3.75838 5.65058V6.84142C3.75838 7.37785 4.43167 7.81202 5.25597 7.81202C5.39755 7.81202 5.5234 7.78371 5.6524 7.76011C4.4647 10.1339 4.02109 13.0583 3.86378 15.6618C0.498914 15.7106 0.61375 19.1557 0.61375 20.5604C0.61375 21.9684 2.09876 21.9306 3.92828 21.9306V21.6302C4.71011 25.0878 8.55477 24.9997 13.1891 24.9997C17.7527 24.9997 21.5549 25.0925 22.4185 21.7985C24.2543 21.7985 25.7189 21.7843 25.7189 20.4849C25.7205 19.1761 25.8101 16.0236 22.5239 15.8207ZM11.5248 1.98683C11.5248 1.69266 11.8756 1.44411 12.2925 1.44411H14.0229C14.4413 1.44411 14.7937 1.69266 14.7937 1.98683V3.25003C14.2887 3.1698 13.7617 3.11474 13.1891 3.11474C12.5929 3.11474 12.0471 3.17609 11.5232 3.26261L11.5248 1.98683ZM21.105 19.8321C21.105 23.6469 17.35 23.6469 13.7224 23.6469H12.5615C10.4928 23.6469 8.80646 23.6138 7.53225 23.1781C5.95286 22.6369 5.18518 21.5421 5.18518 19.8321L5.18204 19.5002C5.17889 16.9124 5.16631 12.0972 7.968 9.43704C9.26109 8.21316 11.0009 7.59022 13.1451 7.59022C15.2845 7.59022 17.0228 8.21316 18.319 9.43704C21.1223 12.0972 21.1097 16.914 21.105 19.5002V19.8321Z" fill="black"/>
</svg>
