<svg width="27" height="23" viewBox="0 0 27 23" fill="none" xmlns="http://www.w3.org/2000/svg">
<path d="M24.146 9.62504H22.7304C22.5224 9.63393 22.3174 9.57334 22.1477 9.45282C21.9779 9.3323 21.8531 9.15871 21.7929 8.95942L20.2179 3.58754C19.9267 2.61932 19.3303 1.7712 18.5176 1.16972C17.705 0.568232 16.7196 0.24563 15.7085 0.250045H7.93667C7.00055 0.250263 6.08593 0.530767 5.31064 1.05542C4.53535 1.58008 3.93491 2.32485 3.58667 3.19379L0.914798 9.87817C0.776442 10.2108 0.706305 10.5679 0.708548 10.9282V15.25C0.708582 16.3485 1.09438 17.4121 1.79861 18.2551C2.50284 19.0981 3.48076 19.667 4.56167 19.8625C4.75638 20.6756 5.21722 21.4003 5.87097 21.9215C6.52472 22.4426 7.33388 22.7304 8.16991 22.739C9.00593 22.7476 9.82085 22.4766 10.4852 21.9691C11.1496 21.4615 11.6252 20.7464 11.8367 19.9375H15.8304C16.0402 20.74 16.5101 21.4504 17.1666 21.9573C17.823 22.4643 18.6291 22.7393 19.4585 22.7393C20.288 22.7393 21.0941 22.4643 21.7505 21.9573C22.407 21.4504 22.8769 20.74 23.0867 19.9375H24.146C24.892 19.9375 25.6073 19.6412 26.1348 19.1138C26.6622 18.5863 26.9585 17.871 26.9585 17.125V12.4375C26.9585 11.6916 26.6622 10.9763 26.1348 10.4488C25.6073 9.92136 24.892 9.62504 24.146 9.62504ZM8.20855 20.875C7.83771 20.875 7.4752 20.7651 7.16685 20.559C6.85851 20.353 6.61819 20.0602 6.47627 19.7176C6.33436 19.375 6.29723 18.998 6.36958 18.6342C6.44192 18.2705 6.6205 17.9364 6.88272 17.6742C7.14495 17.412 7.47904 17.2334 7.84275 17.1611C8.20647 17.0887 8.58347 17.1259 8.92608 17.2678C9.26869 17.4097 9.56153 17.65 9.76755 17.9583C9.97358 18.2667 10.0835 18.6292 10.0835 19C10.0835 19.4973 9.886 19.9742 9.53437 20.3259C9.18274 20.6775 8.70583 20.875 8.20855 20.875ZM12.896 9.62504H3.02417L5.32105 3.89692C5.52946 3.37361 5.89021 2.92494 6.35657 2.60902C6.82292 2.2931 7.37339 2.1245 7.93667 2.12504H12.896V9.62504ZM14.771 9.62504V2.12504H15.7085C16.3179 2.11979 16.9125 2.31258 17.4028 2.6744C17.8931 3.03622 18.2526 3.5475 18.4273 4.13129L20.0304 9.49379C20.0452 9.53916 20.064 9.58309 20.0867 9.62504H14.771ZM19.4585 20.875C19.0877 20.875 18.7252 20.7651 18.4169 20.559C18.1085 20.353 17.8682 20.0602 17.7263 19.7176C17.5844 19.375 17.5472 18.998 17.6196 18.6342C17.6919 18.2705 17.8705 17.9364 18.1327 17.6742C18.3949 17.412 18.729 17.2334 19.0928 17.1611C19.4565 17.0887 19.8335 17.1259 20.1761 17.2678C20.5187 17.4097 20.8115 17.65 21.0176 17.9583C21.2236 18.2667 21.3335 18.6292 21.3335 19C21.3335 19.4973 21.136 19.9742 20.7844 20.3259C20.4327 20.6775 19.9558 20.875 19.4585 20.875ZM25.0835 15.25H24.146C23.8974 15.25 23.6589 15.1513 23.4831 14.9755C23.3073 14.7996 23.2085 14.5612 23.2085 14.3125C23.2085 14.0639 23.3073 13.8254 23.4831 13.6496C23.6589 13.4738 23.8974 13.375 24.146 13.375H25.0835V15.25Z" fill="black"/>
</svg>
