<svg width="31" height="31" viewBox="0 0 31 31" fill="none" xmlns="http://www.w3.org/2000/svg">
<path d="M26.146 13.625H24.7304C24.5224 13.6339 24.3174 13.5733 24.1477 13.4528C23.9779 13.3323 23.8531 13.1587 23.7929 12.9594L22.2179 7.58754C21.9267 6.61932 21.3303 5.7712 20.5176 5.16972C19.705 4.56823 18.7196 4.24563 17.7085 4.25004H9.93667C9.00055 4.25026 8.08593 4.53077 7.31064 5.05542C6.53535 5.58008 5.93491 6.32485 5.58667 7.19379L2.9148 13.8782C2.77644 14.2108 2.70631 14.5679 2.70855 14.9282V19.25C2.70858 20.3485 3.09438 21.4121 3.79861 22.2551C4.50284 23.0981 5.48076 23.667 6.56167 23.8625C6.75638 24.6756 7.21722 25.4003 7.87097 25.9215C8.52472 26.4426 9.33388 26.7304 10.1699 26.739C11.0059 26.7476 11.8209 26.4766 12.4852 25.969C13.1496 25.4615 13.6252 24.7464 13.8367 23.9375H17.8304C18.0402 24.74 18.5101 25.4504 19.1665 25.9573C19.823 26.4643 20.6291 26.7393 21.4585 26.7393C22.288 26.7393 23.0941 26.4643 23.7505 25.9573C24.407 25.4504 24.8769 24.74 25.0867 23.9375H26.146C26.892 23.9375 27.6073 23.6412 28.1348 23.1138C28.6622 22.5863 28.9585 21.871 28.9585 21.125V16.4375C28.9585 15.6916 28.6622 14.9763 28.1348 14.4488C27.6073 13.9214 26.892 13.625 26.146 13.625ZM10.2085 24.875C9.83771 24.875 9.4752 24.7651 9.16685 24.559C8.85851 24.353 8.61819 24.0602 8.47627 23.7176C8.33436 23.375 8.29723 22.998 8.36958 22.6342C8.44192 22.2705 8.6205 21.9364 8.88272 21.6742C9.14495 21.412 9.47904 21.2334 9.84275 21.1611C10.2065 21.0887 10.5835 21.1259 10.9261 21.2678C11.2687 21.4097 11.5615 21.65 11.7676 21.9583C11.9736 22.2667 12.0835 22.6292 12.0835 23C12.0835 23.4973 11.886 23.9742 11.5344 24.3259C11.1827 24.6775 10.7058 24.875 10.2085 24.875ZM14.896 13.625H5.02417L7.32105 7.89692C7.52946 7.37361 7.89021 6.92494 8.35657 6.60902C8.82292 6.2931 9.37339 6.1245 9.93667 6.12504H14.896V13.625ZM16.771 13.625V6.12504H17.7085C18.3179 6.11979 18.9125 6.31258 19.4028 6.6744C19.8931 7.03622 20.2526 7.5475 20.4273 8.13129L22.0304 13.4938C22.0452 13.5392 22.064 13.5831 22.0867 13.625H16.771ZM21.4585 24.875C21.0877 24.875 20.7252 24.7651 20.4169 24.559C20.1085 24.353 19.8682 24.0602 19.7263 23.7176C19.5844 23.375 19.5472 22.998 19.6196 22.6342C19.6919 22.2705 19.8705 21.9364 20.1327 21.6742C20.3949 21.412 20.729 21.2334 21.0928 21.1611C21.4565 21.0887 21.8335 21.1259 22.1761 21.2678C22.5187 21.4097 22.8115 21.65 23.0176 21.9583C23.2236 22.2667 23.3335 22.6292 23.3335 23C23.3335 23.4973 23.136 23.9742 22.7844 24.3259C22.4327 24.6775 21.9558 24.875 21.4585 24.875ZM27.0835 19.25H26.146C25.8974 19.25 25.659 19.1513 25.4831 18.9755C25.3073 18.7996 25.2085 18.5612 25.2085 18.3125C25.2085 18.0639 25.3073 17.8254 25.4831 17.6496C25.659 17.4738 25.8974 17.375 26.146 17.375H27.0835V19.25Z" fill="black"/>
</svg>
