<svg width="29" height="27" viewBox="0 0 29 27" fill="none" xmlns="http://www.w3.org/2000/svg">
<path fill-rule="evenodd" clip-rule="evenodd" d="M6.52157 10.9468C2.40903 10.9468 0.833496 14.3821 0.833496 18.6174V18.9087C0.833496 23.1475 2.40903 26.5811 6.52157 26.5811H23.1454C27.258 26.5811 28.8335 23.1475 28.8335 18.9087V18.6174C28.8335 14.3821 27.258 10.9468 23.1454 10.9468H6.52157ZM13.0536 19.635H9.54457V23.1721H7.79007V19.635H4.28108V17.8805H7.79007V14.3435H9.54457V17.8805H13.0536V19.635ZM20.0715 17.8805H18.317V16.126H20.0715V17.8805ZM23.5805 21.3895H21.826V19.635H23.5805V21.3895Z" fill="black"/>
<path fill-rule="evenodd" clip-rule="evenodd" d="M14.8082 11.0454H13.0537V5.59948L16.6171 5.67142L16.5627 0.418457H18.3172V7.35398H14.8082V11.0454Z" fill="black"/>
</svg>
