<svg width="46" height="45" viewBox="0 0 46 45" fill="none" xmlns="http://www.w3.org/2000/svg">
<rect x="0.5" width="45" height="45" rx="10" fill="#29756F"/>
<path d="M31.3748 17.1042L25.3748 12.9063C23.7394 11.7604 21.229 11.8229 19.6561 13.0417L14.4373 17.1146C13.3957 17.9271 12.5728 19.5938 12.5728 20.9063V28.0938C12.5728 30.75 14.729 32.9167 17.3853 32.9167H28.6144C31.2707 32.9167 33.4269 30.7604 33.4269 28.1042V21.0417C33.4269 19.6354 32.5207 17.9063 31.3748 17.1042ZM23.7811 28.75C23.7811 29.1771 23.4269 29.5313 22.9998 29.5313C22.5728 29.5313 22.2186 29.1771 22.2186 28.75V25.625C22.2186 25.1979 22.5728 24.8438 22.9998 24.8438C23.4269 24.8438 23.7811 25.1979 23.7811 25.625V28.75Z" fill="white"/>
</svg>
