<svg width="23" height="23" viewBox="0 0 23 23" fill="none" xmlns="http://www.w3.org/2000/svg">
<path fill-rule="evenodd" clip-rule="evenodd" d="M22.461 11.8477L17.103 6.35464L17.103 2.35098L15.7417 2.38192V4.81193L12.2062 1.26523C11.8153 0.877086 11.1853 0.877086 10.7957 1.26523L0.539523 11.8491C0.152789 12.2386 0.154196 12.8715 0.539523 13.2582C0.927663 13.6463 1.56191 13.6463 1.95005 13.2568L11.5003 3.70798L21.0533 13.2568C21.2474 13.4509 21.5005 13.5493 21.7564 13.5493C22.011 13.5493 22.2641 13.4537 22.461 13.2582C22.8463 12.8686 22.8463 12.2344 22.461 11.8477Z" fill="black"/>
<path fill-rule="evenodd" clip-rule="evenodd" d="M4.5293 12.9193V20.9212C4.5293 21.4753 4.83591 22.0263 5.32671 22.0263H8.52886L8.61883 16.4108H14.3481L14.3453 22.0263H17.5841C18.0749 22.0263 18.4728 21.4767 18.4728 20.9212V12.9179L11.5004 6.01855L4.5293 12.9193Z" fill="black"/>
</svg>
