<svg width="24" height="25" viewBox="0 0 24 25" fill="none" xmlns="http://www.w3.org/2000/svg">
<path d="M12.1196 0C7.80713 0 3.80713 1.25 0.400879 3.40625L2.05713 5.9375C4.96338 4.09375 8.40088 3.09375 12.1196 3.09375C15.8696 3.09375 19.3696 4.0625 22.2759 5.9375L23.9321 3.40625C20.5259 1.21875 16.4321 0 12.1196 0ZM12.1196 9.375C9.65088 9.375 7.43213 10.0938 5.46338 11.3438L7.11963 13.9687C8.58838 13.0312 10.2446 12.5 12.0884 12.5C13.9321 12.5 15.7134 13.0312 17.1821 13.9687L18.8384 11.3438C16.9009 10.125 14.5571 9.375 12.0884 9.375H12.1196ZM12.1196 18.75C10.4009 18.75 8.99463 20.1562 8.99463 21.875C8.99463 23.5938 10.4009 25 12.1196 25C13.8384 25 15.2446 23.5938 15.2446 21.875C15.2446 20.1562 13.8384 18.75 12.1196 18.75Z" fill="black"/>
</svg>
