<svg width="26" height="25" viewBox="0 0 26 25" fill="none" xmlns="http://www.w3.org/2000/svg">
<path d="M23.6721 2.69037L22.6422 1.65887C20.5164 -0.468505 17.1534 -0.562706 15.1359 1.45477L1.78607 14.8031C-0.229831 16.8205 -0.13563 20.1804 1.99488 22.3109L3.02167 23.3377C5.15219 25.4682 8.51359 25.5639 10.5311 23.548L23.8809 10.1951C25.8968 8.18229 25.8026 4.82088 23.6721 2.69037ZM16.1188 15.9303L9.45403 9.26246L16.0607 2.65583C17.5443 1.17373 20.0359 1.24595 21.6107 2.82382L22.559 3.7674C23.3283 4.54142 23.7694 5.54937 23.7946 6.60756C23.8197 7.64691 23.4413 8.6109 22.727 9.32212L16.1188 15.9303Z" fill="black"/>
</svg>
