<svg width="23" height="24" viewBox="0 0 23 24" fill="none" xmlns="http://www.w3.org/2000/svg">
<path d="M15.8615 15.268L15.2927 15.8676C15.2927 15.8676 13.939 17.2917 10.2453 13.4031C6.55155 9.51457 7.9053 8.09044 7.9053 8.09044L8.26279 7.71191C9.14654 6.78278 9.23029 5.28983 8.45904 4.19923L6.88405 1.97171C5.92906 0.621703 4.08532 0.443025 2.99158 1.5945L1.02909 3.65923C0.487845 4.231 0.125348 4.96953 0.169097 5.79013C0.281597 7.89058 1.17909 12.4078 6.18406 17.6782C11.4928 23.2662 16.474 23.4885 18.5102 23.2873C19.1552 23.2238 19.7152 22.877 20.1665 22.4006L21.9415 20.5317C23.1414 19.2704 22.8039 17.1064 21.269 16.2236L18.8815 14.8484C17.874 14.2687 16.649 14.4395 15.8615 15.268Z" fill="black"/>
</svg>
