<svg width="23" height="25" viewBox="0 0 23 25" fill="none" xmlns="http://www.w3.org/2000/svg">
<path d="M21.6875 19.9372C21.4389 19.9372 21.2004 20.0359 21.0246 20.2118C20.8488 20.3876 20.75 20.626 20.75 20.8747C20.7487 21.2035 20.6609 21.5262 20.4955 21.8104C20.3301 22.0945 20.0929 22.3302 19.8077 22.4938C19.5224 22.6574 19.1992 22.743 18.8704 22.7422C18.5415 22.7414 18.2187 22.6541 17.9343 22.4891C17.6499 22.3242 17.4138 22.0873 17.2498 21.8023C17.0858 21.5173 16.9997 21.1942 17 20.8654C17.0003 20.5365 17.0871 20.2136 17.2517 19.9289C17.4162 19.6442 17.6527 19.4078 17.9375 19.2434C17.9112 19.4359 17.9453 19.6318 18.0352 19.8041C18.1251 19.9763 18.2662 20.1164 18.4392 20.2049C18.6121 20.2934 18.8083 20.3261 19.0006 20.2982C19.1928 20.2704 19.3717 20.1836 19.5125 20.0497L20.8344 18.7278C20.9222 18.6406 20.992 18.537 21.0396 18.4227C21.0872 18.3085 21.1117 18.1859 21.1117 18.0622C21.1117 17.9384 21.0872 17.8159 21.0396 17.7016C20.992 17.5874 20.9222 17.4837 20.8344 17.3965L19.5125 16.0747C19.4253 15.9868 19.3217 15.9171 19.2074 15.8695C19.0932 15.8219 18.9706 15.7974 18.8469 15.7974C18.7231 15.7974 18.6006 15.8219 18.4863 15.8695C18.3721 15.9171 18.2684 15.9868 18.1812 16.0747C18.039 16.224 17.9499 16.4161 17.9279 16.6212C17.9059 16.8263 17.9521 17.0329 18.0594 17.209C17.3698 17.3627 16.7377 17.708 16.2358 18.2052C15.7339 18.7024 15.3827 19.3313 15.2226 20.0194C15.0625 20.7075 15.1 21.4268 15.3308 22.0945C15.5616 22.7622 15.9764 23.3511 16.5273 23.7934C17.0782 24.2357 17.7428 24.5134 18.4446 24.5945C19.1464 24.6756 19.8568 24.5568 20.4941 24.2517C21.1313 23.9467 21.6694 23.4679 22.0464 22.8704C22.4234 22.273 22.624 21.5811 22.625 20.8747C22.625 20.626 22.5262 20.3876 22.3504 20.2118C22.1746 20.0359 21.9361 19.9372 21.6875 19.9372Z" fill="black"/>
<path d="M17.5437 1.68417C17.1357 1.43213 16.67 1.28862 16.1908 1.26729C15.7117 1.24596 15.2351 1.34751 14.8062 1.56229L14.525 1.70292C14.4041 1.75725 14.2731 1.78534 14.1406 1.78534C14.0081 1.78534 13.8771 1.75725 13.7563 1.70292L10.5406 0.446669C9.8724 0.180538 9.1276 0.180538 8.45938 0.446669L5.24375 1.73104C5.12289 1.78537 4.99189 1.81346 4.85938 1.81346C4.72687 1.81346 4.59586 1.78537 4.475 1.73104L4.19375 1.59042C3.76737 1.37751 3.29388 1.27645 2.81773 1.29672C2.34158 1.31698 1.87839 1.45791 1.47164 1.70627C1.06489 1.95463 0.727918 2.30228 0.492365 2.71658C0.256813 3.13088 0.130402 3.59824 0.125 4.07479V18.0623C0.125 19.3055 0.61886 20.4978 1.49794 21.3769C2.37701 22.2559 3.5693 22.7498 4.8125 22.7498H13.6062C13.3775 22.1508 13.2569 21.5159 13.25 20.8748V20.7998C13.2515 19.7901 13.5248 18.7995 14.0411 17.9319C14.5574 17.0642 15.2977 16.3515 16.1844 15.8685C16.3146 15.416 16.5564 15.0034 16.8875 14.6685L17 14.5654C17.1775 14.4091 17.3726 14.2738 17.5813 14.1623C17.9255 13.9874 18.3021 13.8853 18.6875 13.8623H18.875V4.07479C18.875 3.59594 18.7527 3.12503 18.5197 2.70667C18.2867 2.28831 17.9508 1.93636 17.5437 1.68417V1.68417ZM11.375 16.1873H5.75C5.50136 16.1873 5.2629 16.0885 5.08709 15.9127C4.91127 15.7369 4.8125 15.4984 4.8125 15.2498C4.8125 15.0012 4.91127 14.7627 5.08709 14.5869C5.2629 14.4111 5.50136 14.3123 5.75 14.3123H11.375C11.6236 14.3123 11.8621 14.4111 12.0379 14.5869C12.2137 14.7627 12.3125 15.0012 12.3125 15.2498C12.3125 15.4984 12.2137 15.7369 12.0379 15.9127C11.8621 16.0885 11.6236 16.1873 11.375 16.1873ZM13.25 10.5623H5.75C5.50136 10.5623 5.2629 10.4635 5.08709 10.2877C4.91127 10.1119 4.8125 9.87343 4.8125 9.62479C4.8125 9.37615 4.91127 9.1377 5.08709 8.96188C5.2629 8.78607 5.50136 8.68729 5.75 8.68729H13.25C13.4986 8.68729 13.7371 8.78607 13.9129 8.96188C14.0887 9.1377 14.1875 9.37615 14.1875 9.62479C14.1875 9.87343 14.0887 10.1119 13.9129 10.2877C13.7371 10.4635 13.4986 10.5623 13.25 10.5623Z" fill="black"/>
</svg>
