<svg width="21" height="21" viewBox="0 0 21 23" fill="none" xmlns="http://www.w3.org/2000/svg">
<path d="M16.125 0.25C14.8818 0.25 13.6895 0.74386 12.8104 1.62294C11.9314 2.50201 11.4375 3.6943 11.4375 4.9375V6.8125C11.4373 7.89311 11.8104 8.94061 12.4938 9.77772C13.1771 10.6148 14.1287 11.1901 15.1875 11.4062V13.5438C14.6404 13.7372 14.1666 14.0951 13.8309 14.5684C13.4952 15.0417 13.3141 15.6072 13.3125 16.1875V19.9375C13.3125 20.6834 13.6088 21.3988 14.1363 21.9262C14.6637 22.4537 15.3791 22.75 16.125 22.75C16.8709 22.75 17.5863 22.4537 18.1137 21.9262C18.6412 21.3988 18.9375 20.6834 18.9375 19.9375V16.1875C18.9359 15.6072 18.7548 15.0417 18.4191 14.5684C18.0834 14.0951 17.6096 13.7372 17.0625 13.5438V11.4062C18.1213 11.1901 19.0729 10.6148 19.7562 9.77772C20.4396 8.94061 20.8127 7.89311 20.8125 6.8125V4.9375C20.8125 3.6943 20.3186 2.50201 19.4396 1.62294C18.5605 0.74386 17.3682 0.25 16.125 0.25V0.25Z" fill="#212325"/>
<path d="M8.625 0.25C8.37636 0.25 8.1379 0.348772 7.96209 0.524588C7.78627 0.700403 7.6875 0.93886 7.6875 1.1875V4.9375C7.6875 5.18614 7.58873 5.4246 7.41291 5.60041C7.2371 5.77623 6.99864 5.875 6.75 5.875C6.50136 5.875 6.2629 5.77623 6.08709 5.60041C5.91127 5.4246 5.8125 5.18614 5.8125 4.9375V1.1875C5.8125 0.93886 5.71373 0.700403 5.53791 0.524588C5.3621 0.348772 5.12364 0.25 4.875 0.25C4.62636 0.25 4.3879 0.348772 4.21209 0.524588C4.03627 0.700403 3.9375 0.93886 3.9375 1.1875V4.9375C3.9375 5.18614 3.83873 5.4246 3.66291 5.60041C3.4871 5.77623 3.24864 5.875 3 5.875C2.75136 5.875 2.5129 5.77623 2.33709 5.60041C2.16127 5.4246 2.0625 5.18614 2.0625 4.9375V1.1875C2.0625 0.93886 1.96373 0.700403 1.78791 0.524588C1.6121 0.348772 1.37364 0.25 1.125 0.25C0.87636 0.25 0.637903 0.348772 0.462088 0.524588C0.286272 0.700403 0.1875 0.93886 0.1875 1.1875V6.8125C0.18728 7.89311 0.560422 8.94061 1.24378 9.77772C1.92713 10.6148 2.87872 11.1901 3.9375 11.4062V13.5438C3.39042 13.7372 2.91656 14.0951 2.58088 14.5684C2.2452 15.0417 2.06413 15.6072 2.0625 16.1875V19.9375C2.0625 20.6834 2.35882 21.3988 2.88626 21.9262C3.41371 22.4537 4.12908 22.75 4.875 22.75C5.62092 22.75 6.33629 22.4537 6.86374 21.9262C7.39118 21.3988 7.6875 20.6834 7.6875 19.9375V16.1875C7.68587 15.6072 7.5048 15.0417 7.16912 14.5684C6.83344 14.0951 6.35958 13.7372 5.8125 13.5438V11.4062C6.87128 11.1901 7.82287 10.6148 8.50622 9.77772C9.18958 8.94061 9.56272 7.89311 9.5625 6.8125V1.1875C9.5625 0.93886 9.46373 0.700403 9.28791 0.524588C9.1121 0.348772 8.87364 0.25 8.625 0.25V0.25Z" fill="#212325"/>
</svg>
