<svg width="19" height="24" viewBox="0 0 19 24" fill="none" xmlns="http://www.w3.org/2000/svg">
<path d="M16.1281 9.6313C15.4891 8.98409 14.7558 8.43728 13.9531 8.00942C13.7432 7.89199 13.5273 7.78559 13.3062 7.69067C12.8606 7.48914 12.3998 7.323 11.9281 7.1938L11.4781 7.09067C11.15 7.02505 10.8312 6.97817 10.5406 6.94067H10.1H9.875C9.63473 6.92212 9.39339 6.92212 9.15312 6.94067H8.94687H8.6H8.46875C8.1536 6.96773 7.84047 7.0147 7.53125 7.0813L7.09062 7.18442C6.62304 7.31315 6.16556 7.47609 5.72187 7.67193C5.49687 7.77505 5.27188 7.87817 5.06563 7.99067C3.57248 8.79227 2.32454 9.98362 1.45456 11.438C0.584587 12.8924 0.125106 14.5553 0.125 16.25V19.0625C0.125 20.3058 0.61886 21.498 1.49794 22.3771C2.37701 23.2562 3.5693 23.75 4.8125 23.75H14.1875C15.4307 23.75 16.623 23.2562 17.5021 22.3771C18.3811 21.498 18.875 20.3058 18.875 19.0625V16.25C18.8807 15.0195 18.6407 13.8002 18.169 12.6637C17.6974 11.5271 17.0035 10.4962 16.1281 9.6313ZM9.03125 14.375H9.96875C10.5904 14.3129 11.2112 14.5002 11.6947 14.8958C12.1782 15.2914 12.4847 15.8628 12.5469 16.4844C12.609 17.106 12.4217 17.7269 12.0261 18.2104C11.6305 18.6938 11.0591 19.0004 10.4375 19.0625V19.0625C10.4375 19.3112 10.3387 19.5496 10.1629 19.7255C9.9871 19.9013 9.74864 20 9.5 20C9.25136 20 9.0129 19.9013 8.83709 19.7255C8.66127 19.5496 8.5625 19.3112 8.5625 19.0625H7.625C7.37636 19.0625 7.1379 18.9638 6.96209 18.788C6.78627 18.6121 6.6875 18.3737 6.6875 18.125C6.6875 17.8764 6.78627 17.638 6.96209 17.4621C7.1379 17.2863 7.37636 17.1875 7.625 17.1875H9.96875C10.0931 17.1875 10.2123 17.1382 10.3002 17.0503C10.3881 16.9623 10.4375 16.8431 10.4375 16.7188C10.4375 16.5945 10.3881 16.4753 10.3002 16.3873C10.2123 16.2994 10.0931 16.25 9.96875 16.25H9.03125C8.45002 16.2506 7.88931 16.0352 7.45797 15.6457C7.02663 15.2561 6.75542 14.7201 6.69701 14.1418C6.6386 13.5636 6.79714 12.9842 7.14186 12.5162C7.48659 12.0483 7.9929 11.7251 8.5625 11.6094V11.5625C8.5625 11.3139 8.66127 11.0755 8.83709 10.8996C9.0129 10.7238 9.25136 10.625 9.5 10.625C9.74864 10.625 9.9871 10.7238 10.1629 10.8996C10.3387 11.0755 10.4375 11.3139 10.4375 11.5625H11.375C11.6236 11.5625 11.8621 11.6613 12.0379 11.8371C12.2137 12.013 12.3125 12.2514 12.3125 12.5C12.3125 12.7487 12.2137 12.9871 12.0379 13.163C11.8621 13.3388 11.6236 13.4375 11.375 13.4375H9.03125C8.90693 13.4375 8.7877 13.4869 8.69979 13.5748C8.61189 13.6628 8.5625 13.782 8.5625 13.9063C8.5625 14.0306 8.61189 14.1498 8.69979 14.2378C8.7877 14.3257 8.90693 14.375 9.03125 14.375Z" fill="black"/>
<path d="M4.74705 6.06863L4.94393 5.97488C5.45957 5.74076 5.99238 5.54644 6.53768 5.39363C7.50413 5.13547 8.49985 5.00312 9.50018 4.99988C10.5007 4.9998 11.4969 5.1322 12.4627 5.39363C13.0138 5.53158 13.553 5.71341 14.0752 5.93738L14.2533 6.02176L14.6189 3.65926C14.6941 3.16908 14.6383 2.66775 14.4573 2.20607C14.2762 1.7444 13.9763 1.33881 13.588 1.03041C13.1996 0.722017 12.7366 0.521786 12.246 0.450019C11.7553 0.378252 11.2543 0.4375 10.7939 0.621757L9.85643 0.996757C9.63369 1.08547 9.38542 1.08547 9.16268 0.996757L8.22518 0.621757C7.76478 0.4375 7.26384 0.378252 6.77315 0.450019C6.28247 0.521786 5.81948 0.722017 5.43113 1.03041C5.04278 1.33881 4.74288 1.7444 4.56183 2.20607C4.38077 2.66775 4.32501 3.16908 4.40018 3.65926L4.74705 6.06863Z" fill="black"/>
</svg>
