<svg width="24" height="23" viewBox="0 0 24 23" fill="none" xmlns="http://www.w3.org/2000/svg">
<path d="M20.6042 15.25H3.7292H3.33545L4.08545 19C4.30157 20.0588 4.87687 21.0104 5.71398 21.6937C6.55109 22.3771 7.59859 22.7502 8.6792 22.75H15.6542C16.7348 22.7502 17.7823 22.3771 18.6194 21.6937C19.4565 21.0104 20.0318 20.0588 20.2479 19L20.9979 15.25H20.6042ZM11.2292 19.9375C11.2292 20.1861 11.1304 20.4246 10.9546 20.6004C10.7788 20.7762 10.5403 20.875 10.2917 20.875C10.0431 20.875 9.8046 20.7762 9.62879 20.6004C9.45297 20.4246 9.3542 20.1861 9.3542 19.9375V18.0625C9.3542 17.8139 9.45297 17.5754 9.62879 17.3996C9.8046 17.2238 10.0431 17.125 10.2917 17.125C10.5403 17.125 10.7788 17.2238 10.9546 17.3996C11.1304 17.5754 11.2292 17.8139 11.2292 18.0625V19.9375ZM14.9792 19.9375C14.9792 20.1861 14.8804 20.4246 14.7046 20.6004C14.5288 20.7762 14.2903 20.875 14.0417 20.875C13.7931 20.875 13.5546 20.7762 13.3788 20.6004C13.203 20.4246 13.1042 20.1861 13.1042 19.9375V18.0625C13.1042 17.8139 13.203 17.5754 13.3788 17.3996C13.5546 17.2238 13.7931 17.125 14.0417 17.125C14.2903 17.125 14.5288 17.2238 14.7046 17.3996C14.8804 17.5754 14.9792 17.8139 14.9792 18.0625V19.9375Z" fill="black"/>
<path d="M20.604 5.875H18.729V4.9375C18.729 4.32193 18.6078 3.71238 18.3722 3.14367C18.1366 2.57496 17.7913 2.05821 17.3561 1.62294C16.9208 1.18766 16.404 0.842384 15.8353 0.606815C15.2666 0.371246 14.6571 0.25 14.0415 0.25H10.2915C9.0483 0.25 7.85602 0.74386 6.97694 1.62294C6.09786 2.50201 5.604 3.6943 5.604 4.9375V5.875H3.729C2.98308 5.875 2.26771 6.17132 1.74027 6.69876C1.21282 7.22621 0.916504 7.94158 0.916504 8.6875V10.5625C0.916504 11.3084 1.21282 12.0238 1.74027 12.5512C2.26771 13.0787 2.98308 13.375 3.729 13.375H20.604C21.3499 13.375 22.0653 13.0787 22.5927 12.5512C23.1202 12.0238 23.4165 11.3084 23.4165 10.5625V8.6875C23.4165 7.94158 23.1202 7.22621 22.5927 6.69876C22.0653 6.17132 21.3499 5.875 20.604 5.875V5.875ZM7.479 4.9375C7.479 4.19158 7.77532 3.47621 8.30277 2.94876C8.83021 2.42132 9.54558 2.125 10.2915 2.125H14.0415C14.7874 2.125 15.5028 2.42132 16.0302 2.94876C16.5577 3.47621 16.854 4.19158 16.854 4.9375V5.875H7.479V4.9375Z" fill="black"/>
</svg>
