<svg xmlns="http://www.w3.org/2000/svg" width="100" height="100"><defs><clipPath id="a"><circle data-name="楕円形 964" cx="50" cy="50" r="50" transform="translate(-9333 -16287)" fill="#d1d1d1"/></clipPath></defs><g data-name="グループ 98368"><path data-name="パス 289841" d="M50 0A50 50 0 1 1 0 50 50 50 0 0 1 50 0Z" fill="#399ae0"/><g data-name="マスクグループ 809" transform="translate(9333 16287)" clip-path="url(#a)"><g data-name="アートワーク 2"><g data-name="グループ 89240"><g data-name="グループ 89235"><path data-name="パス 241777" d="M-9308.802-16223.258c-13.339 1.916-11.164 24.737-10.349 35.739.735 9.927-5.57 13.448-1.9 19.017 5.181 7.868 19.238 5.412 24.178 2.58s2.347-55.338.151-57.337-12.08.001-12.08.001Z" fill="#fff" stroke="#fff" stroke-linecap="round" stroke-linejoin="round" stroke-width="15.589"/><path data-name="パス 241778" d="M-9275.038-16223.204c-2.781-2.285-3.146-.2-6.326-1.391s-2.914-1.59-5.828-.53-3.8-1.811-6.624-.663c-7.153 2.914-10.375-.611-12.585 4.769-5.165 12.585 2.385 9.141 7.816 9.008a114.014 114.014 0 0 1 11.658 0c5.7.265 12.385 2.417 13.975.033s3.63-6.53-2.086-11.226Z" fill="#fff" stroke="#fff" stroke-linecap="round" stroke-linejoin="round" stroke-width="15.589"/><g data-name="グループ 89234"><g data-name="グループ 89232"><path data-name="パス 241779" d="M-9262.347-16185.732a84.9 84.9 0 0 0 5.159 9.5c.541.749 7.137 4.357 13.782 7.787 6.421 3.315 12.886 6.464 13.973 6.705 1.392.655 1.719 1.064 2.374 2.7s4.749 6.387 7.123 7.7 3.7 1.212 6.238.884 6.012-4.928 4.089-7.484c-1.38-1.833-.844-2.167-.722-3.03.143-1 .288-1.539-1.089-2.9-1.651-1.628-3.521-4.585-7.042-4.749s-4.994 1.883-8.6-.409-15.885-10.645-17.436-11.632-2.375-2.128-4.176-5.567-5-8.515-5.567-9.5-8.106 9.995-8.106 9.995Z" fill="#fff" stroke="#fff" stroke-linecap="round" stroke-linejoin="round" stroke-width="15.589"/></g><g data-name="グループ 89233" fill="#fff" stroke="#fff" stroke-linecap="round" stroke-linejoin="round" stroke-width="15.589"><path data-name="パス 241780" d="M-9280.89-16229.257c-.349 0-4.927.327-5.363.287a32.329 32.329 0 0 1-1.177 4.339c-.436.9-3.6 6.059-4.033 6.508 5.057 4.339 12.12 3.767 15.521-.164-.915-.45-3.706-5.321-4.1-7.1-.286-1.307-.848-3.379-.848-3.87Z"/><path data-name="パス 241781" d="M-9292.706-16239.614c-.439-7.2 1.885-15.823 10.6-15.823s11.389 9.177 10.95 16.375c.408-.409 1.413-.506 1.413.676a3.776 3.776 0 0 1-.922 2.272 4.25 4.25 0 0 1-1.964 1.289 10.34 10.34 0 0 1-2.518 4.36 12.61 12.61 0 0 1-7.369 3.316c-2.271.061-5.1-1.965-6.571-3.562a15.035 15.035 0 0 1-2.824-4.359 3.062 3.062 0 0 1-1.72-1.352 4.612 4.612 0 0 1-.491-2.64.945.945 0 0 1 1.416-.552Z"/><path data-name="パス 241782" d="M-9277.478-16259.08c-.982.061-1.473-.061-3.009-1.167s-3.315-2.211-5.345-2.088a6.482 6.482 0 0 0-4.176 1.535c-.737.737-2.764 2.825-2.825 5.158a6.443 6.443 0 0 1-1.842 4.851c-1.106 1.044-2.027 6.017-1.658 7.43a14.643 14.643 0 0 0 2.456 4.544c.8.921 1.658 2.149 2.149.061s1.171-4.665 1.355-5.588a3.877 3.877 0 0 1 3.931-3.378c2.947.062 3.991-.122 5.341-1.166s4.79.245 5.4 1.043 3.316 2.149 4.053 3.193 2.518 2.579 4.422 1.167 3.254-2.947 1.964-5.711-3.316-3.132-3.254-5.526-.8-5.1-3.931-5.343-3.864.74-5.031.985Z"/><path data-name="パス 241783" d="M-9319.722-16193.421c-1.109-.5-1.667-.71-4.1 3.937s-14.979 39.6-16.167 41.068-6.85 3.621-7.117 6.886-1.023 5.126-.88 6.025c.164 1.019 3.129 2.6 3.823 2.75 1.579.351 1.736-.053 2.835.748 1.509 1.1 1.706.55 2.962 1 .8.287 2.083-.654 2.985-1.364.83-.652.762-2.659.762-2.659.5-.252.252.513.951.693 1.427.367 2.058-1.885 1.853-3.008.189-1.648-2.582-5.034-1.083-8.357a60.718 60.718 0 0 1 2.92-6.58c1.742-3.226 17.012-31.306 17.689-33.55s-7.433-7.589-7.433-7.589Z"/><path data-name="パス 241784" d="M-9311.302-16017.907a6.992 6.992 0 0 0 .558-1.22c.86-2.7 1.6-62.756 2.088-64.6 0 0 12.281-.736 12.158 1.965s-6.632 64.353-5.4 66.687a8.211 8.211 0 0 0 1.8 1.928c-4.316.978-7.836-1.878-11.204-4.76Z"/><path data-name="パス 241785" d="M-9311.302-16017.908c3.365 2.883 6.888 5.739 11.2 4.76 3.147 2.708 9.25 6.627 11.46 9.125 2.824 3.193-2.947 4.3-5.527 3.562s-16.334-5.772-19.158-8.842c-2.422-2.637.582-5.997 2.025-8.605Z"/><path data-name="パス 241786" d="M-9258.349-16013.531c2.679 1.53 7.367 1.99 9.992 3.982 3.562 2.7 6.632 6.878-1.842 7.492s-16.948-4.176-18.79-6.877c-1.8-2.645 1.444-3.526 1.583-4.944a20.509 20.509 0 0 0 9.057.347Z"/><path data-name="パス 241787" d="M-9277.586-16084.711s13.386-3.8 13.755-2.331 2.579 67.792 3.562 71.353a3.7 3.7 0 0 0 1.92 2.159 20.51 20.51 0 0 1-9.056-.348.838.838 0 0 0 .013-.092c-.002-1.473-10.931-68.528-10.194-70.741Z"/><path data-name="パス 241788" d="M-9311.112-16151.396c-1.106 1.474-.283 127.136.208 128.486s5.58 2.583 9.141 2.583 9.54-56.9 9.932-62.173c.364-4.883 5.035-36.966 5.035-38.194s.982-4.913 1.6 1.719 16.376 99.589 17.113 101.43 5.071-.128 7.65-.5 3.112-67.281 2.62-69.493-6.754-60.422-7.737-61.528-45.562-2.33-45.562-2.33Z"/><path data-name="パス 241789" d="M-9269.971-16218.766c-2.124-1.458-5.85-3.316-6.458-3.146s-2.477 7.288-4.766 7.452-8.386-5.968-9.042-6.955-6.632.012-10.2 1.458c-6.933 2.807-11.186 8.75-13.247 11.26-8.544 10.4-23.977 44.509-25.567 52.325-.229 1.127.491 4.843 2.649 7.287 2.352 2.661 4.255 3.226 5.962.4 5.45-9.039 17.645-34.187 19.206-31.93 1.191 1.723-2.385 5.962-3.61 15.342-.628 4.815.562 20.028.695 28.771.029 1.883 3.682 5.248 10.068 5.165s10.6-2.516 13.512-3.842c2.353-1.069 13.782-.869 17.22-.133s10.045 1.649 10.863-2.384c1.854-9.141-2.66-21.357-2.742-26.514s-1.5-16.274.225-17.334c1.884-1.159 9.8 11.261 17.089 14.042.484.185 14.922 8.336 16.559 5.962a83.458 83.458 0 0 0 4.9-7.551c.41-1.064-18.031-16.083-19.34-17.884s-13-21.412-14.307-23.05a37.771 37.771 0 0 0-9.669-8.741Z"/></g></g><path data-name="パス 241790" d="M-9276.596-16223.005c-1.092 0-1.063-1.523-1.823.332s-.462 2.152-1.356 3.246-2.121.033-2.484 3.179c-.129 1.117-1.846 1.338-.463 2.219 2.186 1.391 3.146-1.226 5.729-1.325s2.606-2.506 3.345-3.147c1.226-1.059 1.822-1.755.232-2.748s-2.186-1.756-3.18-1.756Z" fill="#fff" stroke="#fff" stroke-linecap="round" stroke-linejoin="round" stroke-width="15.589"/><path data-name="パス 241791" d="M-9270.616-16149.737c-1.342-2.135-3.528-2.967-4.521-6.717s.2-5.207-2.981-5.415-5.762.208-9.936.208-10.134-1.458-11.127.416.8 4.374-.6 6.456-2.385 5.415-3.576 7.5 0 4.789 5.365 3.956 9.339-1.874 12.717-1.874 10.332 2.082 13.313 2.082 4.426-2.344 1.346-6.612Z" fill="#fff" stroke="#fff" stroke-linecap="round" stroke-linejoin="round" stroke-width="15.589"/><path data-name="パス 241792" d="M-9302.375-16219.389c1.36-.69 4.682-.394 4.682-.394s-.744 25.531-2.682 29.913-2.785 4.858-5.459 6.258-1.417-.176.461-3.7 3.29-19.928 3.407-23.276c.091-2.59-.354-6.839-.409-8.801Z" fill="#fff" stroke="#fff" stroke-linecap="round" stroke-linejoin="round" stroke-width="15.589"/><path data-name="パス 241793" d="M-9265.049-16215.536c-.021-.648-3.589-2.322-3.589-2.322s-1.971 25-.924 28.956c.481 1.815 1.788 6.8 3.847 8.215a7.157 7.157 0 0 0 .011-5.624c-1.265-3.17-1.227-17.349-1.081-20.229.114-2.228 1.549-7.317 1.736-8.996Z" fill="#fff" stroke="#fff" stroke-linecap="round" stroke-linejoin="round" stroke-width="15.589"/><path data-name="パス 241794" d="M-9281.563-16215.785c.133-1.225.232-2.947-2.451-3.345s-2.981-1.027-4.073-2.616-1.391-2.186-2.981-2.583-10.068.96-10.167 2.251-1.6 2.025-.132 3.046c3.047 2.12 5.962.265 9.406.53 2.753.212 2.484 2.617 4.57 3.113s3.443 2.684 5.828-.396Z" fill="#fff" stroke="#fff" stroke-linecap="round" stroke-linejoin="round" stroke-width="15.589"/></g><g data-name="グループ 89239"><path data-name="パス 241795" d="M-9308.802-16223.258c-13.339 1.916-11.164 24.737-10.349 35.739.735 9.927-5.57 13.448-1.9 19.017 5.181 7.868 19.238 5.412 24.178 2.58s2.347-55.338.151-57.337-12.08.001-12.08.001Z"/><path data-name="パス 241796" d="M-9275.038-16223.204c-2.781-2.285-3.146-.2-6.326-1.391s-2.914-1.59-5.828-.53-3.8-1.811-6.624-.663c-7.153 2.914-10.375-.611-12.585 4.769-5.165 12.585 2.385 9.141 7.816 9.008a114.014 114.014 0 0 1 11.658 0c5.7.265 12.385 2.417 13.975.033s3.63-6.53-2.086-11.226Z" fill="#edbc32"/><g data-name="グループ 89238"><g data-name="グループ 89236"><path data-name="パス 241797" d="M-9262.347-16185.732a84.9 84.9 0 0 0 5.159 9.5c.541.749 7.137 4.357 13.782 7.787 6.421 3.315 12.886 6.464 13.973 6.705 1.392.655 1.719 1.064 2.374 2.7s4.749 6.387 7.123 7.7 3.7 1.212 6.238.884 6.012-4.928 4.089-7.484c-1.38-1.833-.844-2.167-.722-3.03.143-1 .288-1.539-1.089-2.9-1.651-1.628-3.521-4.585-7.042-4.749s-4.994 1.883-8.6-.409-15.885-10.645-17.436-11.632-2.375-2.128-4.176-5.567-5-8.515-5.567-9.5-8.106 9.995-8.106 9.995Z" fill="#ffdbb0"/></g><g data-name="グループ 89237"><path data-name="パス 241798" d="M-9280.89-16229.257c-.349 0-4.927.327-5.363.287a32.329 32.329 0 0 1-1.177 4.339c-.436.9-3.6 6.059-4.033 6.508 5.057 4.339 12.12 3.767 15.521-.164-.915-.45-3.706-5.321-4.1-7.1-.286-1.307-.848-3.379-.848-3.87Z" fill="#ffdbb0"/><path data-name="パス 241799" d="M-9292.706-16239.614c-.439-7.2 1.885-15.823 10.6-15.823s11.389 9.177 10.95 16.375c.408-.409 1.413-.506 1.413.676a3.776 3.776 0 0 1-.922 2.272 4.25 4.25 0 0 1-1.964 1.289 10.34 10.34 0 0 1-2.518 4.36 12.61 12.61 0 0 1-7.369 3.316c-2.271.061-5.1-1.965-6.571-3.562a15.035 15.035 0 0 1-2.824-4.359 3.062 3.062 0 0 1-1.72-1.352 4.612 4.612 0 0 1-.491-2.64.945.945 0 0 1 1.416-.552Z" fill="#ffdbb0"/><path data-name="パス 241800" d="M-9277.478-16259.08c-.982.061-1.473-.061-3.009-1.167s-3.315-2.211-5.345-2.088a6.482 6.482 0 0 0-4.176 1.535c-.737.737-2.764 2.825-2.825 5.158a6.443 6.443 0 0 1-1.842 4.851c-1.106 1.044-2.027 6.017-1.658 7.43a14.643 14.643 0 0 0 2.456 4.544c.8.921 1.658 2.149 2.149.061s1.171-4.665 1.355-5.588a3.877 3.877 0 0 1 3.931-3.378c2.947.062 3.991-.122 5.341-1.166s4.79.245 5.4 1.043 3.316 2.149 4.053 3.193 2.518 2.579 4.422 1.167 3.254-2.947 1.964-5.711-3.316-3.132-3.254-5.526-.8-5.1-3.931-5.343-3.864.74-5.031.985Z" fill="#e83820"/><path data-name="パス 241801" d="M-9319.722-16193.421c-1.109-.5-1.667-.71-4.1 3.937s-14.979 39.6-16.167 41.068-6.85 3.621-7.117 6.886-1.023 5.126-.88 6.025c.164 1.019 3.129 2.6 3.823 2.75 1.579.351 1.736-.053 2.835.748 1.509 1.1 1.706.55 2.962 1 .8.287 2.083-.654 2.985-1.364.83-.652.762-2.659.762-2.659.5-.252.252.513.951.693 1.427.367 2.058-1.885 1.853-3.008.189-1.648-2.582-5.034-1.083-8.357a60.718 60.718 0 0 1 2.92-6.58c1.742-3.226 17.012-31.306 17.689-33.55s-7.433-7.589-7.433-7.589Z" fill="#ffdbb0"/><path data-name="パス 241802" d="M-9311.302-16017.907a6.992 6.992 0 0 0 .558-1.22c.86-2.7 1.6-62.756 2.088-64.6 0 0 12.281-.736 12.158 1.965s-6.632 64.353-5.4 66.687a8.211 8.211 0 0 0 1.8 1.928c-4.316.978-7.836-1.878-11.204-4.76Z" fill="#ffdbb0"/><path data-name="パス 241803" d="M-9311.302-16017.908c3.365 2.883 6.888 5.739 11.2 4.76 3.147 2.708 9.25 6.627 11.46 9.125 2.824 3.193-2.947 4.3-5.527 3.562s-16.334-5.772-19.158-8.842c-2.422-2.637.582-5.997 2.025-8.605Z"/><path data-name="パス 241804" d="M-9258.349-16013.531c2.679 1.53 7.367 1.99 9.992 3.982 3.562 2.7 6.632 6.878-1.842 7.492s-16.948-4.176-18.79-6.877c-1.8-2.645 1.444-3.526 1.583-4.944a20.509 20.509 0 0 0 9.057.347Z"/><path data-name="パス 241805" d="M-9277.586-16084.711s13.386-3.8 13.755-2.331 2.579 67.792 3.562 71.353a3.7 3.7 0 0 0 1.92 2.159 20.51 20.51 0 0 1-9.056-.348.838.838 0 0 0 .013-.092c-.002-1.473-10.931-68.528-10.194-70.741Z" fill="#ffdbb0"/><path data-name="パス 241806" d="M-9311.112-16151.396c-1.106 1.474-.283 127.136.208 128.486s5.58 2.583 9.141 2.583 9.54-56.9 9.932-62.173c.364-4.883 5.035-36.966 5.035-38.194s.982-4.913 1.6 1.719 16.376 99.589 17.113 101.43 5.071-.128 7.65-.5 3.112-67.281 2.62-69.493-6.754-60.422-7.737-61.528-45.562-2.33-45.562-2.33Z"/><path data-name="パス 241807" d="M-9269.971-16218.766c-2.124-1.458-5.85-3.316-6.458-3.146s-2.477 7.288-4.766 7.452-8.386-5.968-9.042-6.955-6.632.012-10.2 1.458c-6.933 2.807-11.186 8.75-13.247 11.26-8.544 10.4-23.977 44.509-25.567 52.325-.229 1.127.491 4.843 2.649 7.287 2.352 2.661 4.255 3.226 5.962.4 5.45-9.039 17.645-34.187 19.206-31.93 1.191 1.723-2.385 5.962-3.61 15.342-.628 4.815.562 20.028.695 28.771.029 1.883 3.682 5.248 10.068 5.165s10.6-2.516 13.512-3.842c2.353-1.069 13.782-.869 17.22-.133s10.045 1.649 10.863-2.384c1.854-9.141-2.66-21.357-2.742-26.514s-1.5-16.274.225-17.334c1.884-1.159 9.8 11.261 17.089 14.042.484.185 14.922 8.336 16.559 5.962a83.458 83.458 0 0 0 4.9-7.551c.41-1.064-18.031-16.083-19.34-17.884s-13-21.412-14.307-23.05a37.771 37.771 0 0 0-9.669-8.741Z" fill="#ffe207"/></g></g><path data-name="パス 241808" d="M-9276.596-16223.005c-1.092 0-1.063-1.523-1.823.332s-.462 2.152-1.356 3.246-2.121.033-2.484 3.179c-.129 1.117-1.846 1.338-.463 2.219 2.186 1.391 3.146-1.226 5.729-1.325s2.606-2.506 3.345-3.147c1.226-1.059 1.822-1.755.232-2.748s-2.186-1.756-3.18-1.756Z" fill="#edbc32"/><path data-name="パス 241809" d="M-9270.616-16149.737c-1.342-2.135-3.528-2.967-4.521-6.717s.2-5.207-2.981-5.415-5.762.208-9.936.208-10.134-1.458-11.127.416.8 4.374-.6 6.456-2.385 5.415-3.576 7.5 0 4.789 5.365 3.956 9.339-1.874 12.717-1.874 10.332 2.082 13.313 2.082 4.426-2.344 1.346-6.612Z" fill="#edbc32"/><path data-name="パス 241810" d="M-9302.375-16219.389c1.36-.69 4.682-.394 4.682-.394s-.744 25.531-2.682 29.913-2.785 4.858-5.459 6.258-1.417-.176.461-3.7 3.29-19.928 3.407-23.276c.091-2.59-.354-6.839-.409-8.801Z"/><path data-name="パス 241811" d="M-9265.049-16215.536c-.021-.648-3.589-2.322-3.589-2.322s-1.971 25-.924 28.956c.481 1.815 1.788 6.8 3.847 8.215a7.157 7.157 0 0 0 .011-5.624c-1.265-3.17-1.227-17.349-1.081-20.229.114-2.228 1.549-7.317 1.736-8.996Z"/><path data-name="パス 241812" d="M-9281.563-16215.785c.133-1.225.232-2.947-2.451-3.345s-2.981-1.027-4.073-2.616-1.391-2.186-2.981-2.583-10.068.96-10.167 2.251-1.6 2.025-.132 3.046c3.047 2.12 5.962.265 9.406.53 2.753.212 2.484 2.617 4.57 3.113s3.443 2.684 5.828-.396Z" fill="#edbc32"/></g></g></g></g></g></svg>