<svg width="31" height="31" viewBox="0 0 31 31" fill="none" xmlns="http://www.w3.org/2000/svg">
<path d="M28.1665 15.5V21.75C28.1665 25.5 25.6665 28 21.9165 28H9.4165C5.6665 28 3.1665 25.5 3.1665 21.75V15.5C3.1665 12.1 5.2165 9.725 8.404 9.325C8.729 9.275 9.0665 9.25 9.4165 9.25H21.9165C22.2415 9.25 22.554 9.26248 22.854 9.31248C26.079 9.68748 28.1665 12.075 28.1665 15.5Z" stroke="#9DB2CE" stroke-width="1.5" stroke-linecap="round" stroke-linejoin="round"/>
<path d="M22.8558 9.3125C22.5558 9.2625 22.2433 9.25001 21.9183 9.25001H9.41826C9.06826 9.25001 8.73076 9.27501 8.40576 9.32501C8.58076 8.97501 8.83076 8.65001 9.13076 8.35001L13.1933 4.275C14.9058 2.575 17.6808 2.575 19.3933 4.275L21.5808 6.48752C22.3808 7.27502 22.8058 8.275 22.8558 9.3125Z" stroke="#9DB2CE" stroke-width="1.5" stroke-linecap="round" stroke-linejoin="round"/>
<path d="M28.1665 16.125H24.4165C23.0415 16.125 21.9165 17.25 21.9165 18.625C21.9165 20 23.0415 21.125 24.4165 21.125H28.1665" stroke="#9DB2CE" stroke-width="1.5" stroke-linecap="round" stroke-linejoin="round"/>
</svg>
