<svg width="46" height="45" viewBox="0 0 46 45" fill="none" xmlns="http://www.w3.org/2000/svg">
<rect x="1" y="0.5" width="44" height="44" rx="9.5" fill="#29756F"/>
<path d="M32.8436 24.2083V25.25C32.8436 25.5313 32.6249 25.7604 32.3332 25.7708H30.8124C30.2603 25.7708 29.7603 25.3646 29.7186 24.8229C29.6874 24.5 29.8124 24.1979 30.0207 23.9896C30.2082 23.7917 30.4686 23.6875 30.7499 23.6875H32.3228C32.6249 23.6979 32.8436 23.9271 32.8436 24.2083Z" fill="white"/>
<path d="M29.2397 23.2187C28.7189 23.7291 28.4689 24.4895 28.6772 25.2812C28.9481 26.2499 29.896 26.8645 30.896 26.8645H31.8022C32.3752 26.8645 32.8439 27.3333 32.8439 27.9062V28.1041C32.8439 30.2603 31.0835 32.0208 28.9272 32.0208H16.9689C14.8127 32.0208 13.0522 30.2603 13.0522 28.1041V21.0937C13.0522 19.8124 13.6668 18.677 14.6147 17.9687C15.271 17.4687 16.0835 17.177 16.9689 17.177H28.9272C31.0835 17.177 32.8439 18.9374 32.8439 21.0937V21.552C32.8439 22.1249 32.3752 22.5937 31.8022 22.5937H30.7397C30.1564 22.5937 29.6252 22.8228 29.2397 23.2187Z" fill="white"/>
<path d="M27.3749 15.0208C27.6561 15.302 27.4165 15.7395 27.0207 15.7395L19.0207 15.7291C18.5624 15.7291 18.3228 15.1666 18.6561 14.8437L20.3436 13.1458C21.7707 11.7291 24.0832 11.7291 25.5103 13.1458L27.3332 14.9895C27.3436 14.9999 27.3644 15.0103 27.3749 15.0208Z" fill="white"/>
<rect x="1" y="0.5" width="44" height="44" rx="9.5" stroke="#29756F"/>
</svg>
