<svg width="31" height="31" viewBox="0 0 31 31" fill="none" xmlns="http://www.w3.org/2000/svg">
<path d="M28.1667 15.5V21.75C28.1667 25.5 25.6667 28 21.9167 28H9.41675C5.66675 28 3.16675 25.5 3.16675 21.75V15.5C3.16675 12.1 5.21675 9.725 8.40425 9.325C8.72925 9.275 9.06675 9.25 9.41675 9.25H21.9167C22.2417 9.25 22.5542 9.26248 22.8542 9.31248C26.0792 9.68748 28.1667 12.075 28.1667 15.5Z" stroke="#9DB2CE" stroke-width="1.5" stroke-linecap="round" stroke-linejoin="round"/>
<path d="M22.856 9.3125C22.556 9.2625 22.2435 9.25001 21.9185 9.25001H9.41851C9.06851 9.25001 8.73101 9.27501 8.40601 9.32501C8.58101 8.97501 8.83101 8.65001 9.13101 8.35001L13.1935 4.275C14.906 2.575 17.681 2.575 19.3935 4.275L21.581 6.48752C22.381 7.27502 22.806 8.275 22.856 9.3125Z" stroke="#9DB2CE" stroke-width="1.5" stroke-linecap="round" stroke-linejoin="round"/>
<path d="M28.1667 16.125H24.4167C23.0417 16.125 21.9167 17.25 21.9167 18.625C21.9167 20 23.0417 21.125 24.4167 21.125H28.1667" stroke="#9DB2CE" stroke-width="1.5" stroke-linecap="round" stroke-linejoin="round"/>
</svg>
